<svg xmlns="http://www.w3.org/2000/svg" viewBox="0 0 24 24" fill="currentColor">
  <path d="M12 .5C5.73.5.98 5.24.98 11.5c0 4.85 3.15 8.96 7.51 10.41.55.1.75-.24.75-.53 0-.26-.01-1.12-.02-2.04-3.05.66-3.7-1.3-3.7-1.3-.5-1.28-1.22-1.63-1.22-1.63-.99-.68.08-.67.08-.67 1.1.08 1.68 1.13 1.68 1.13.98 1.67 2.57 1.19 3.2.9.1-.71.38-1.19.68-1.47-2.44-.28-5-1.22-5-5.43 0-1.2.43-2.18 1.13-2.95-.11-.28-.49-1.42.11-2.96 0 0 .92-.29 3.02 1.13a10.5 10.5 0 0 1 5.5 0c2.1-1.42 3.02-1.13 3.02-1.13.6 1.54.22 2.68.11 2.96.7.77 1.13 1.75 1.13 2.95 0 4.22-2.57 5.14-5.02 5.41.39.34.73 1 .73 2.03 0 1.47-.01 2.65-.01 3.01 0 .29.2.64.76.53 4.35-1.45 7.5-5.56 7.5-10.41C23.02 5.24 18.27.5 12 .5Z"/>
</svg>